  0
SECTION
  2
HEADER
  9
$ACADVER
  1
AC2.10
  9
$INSUNITS
 70
     1
  0
ENDSEC
  0
SECTION
  2
TABLES
  0
TABLE
  2
LAYER
 70
     8
  0
LAYER
  2
0
 62
     7
 70
0
  6
CONTINUOUS
  0
LAYER
  2
1
 62
     1
 70
0
  6
CONTINUOUS
  0
LAYER
  2
2
 62
     2
 70
0
  6
CONTINUOUS
  0
LAYER
  2
3
 62
     3
 70
0
  6
CONTINUOUS
  0
LAYER
  2
4
 62
     4
 70
0
  6
CONTINUOUS
  0
LAYER
  2
5
 62
     5
 70
0
  6
CONTINUOUS
  0
LAYER
  2
6
 62
     6
 70
0
  6
CONTINUOUS
  0
LAYER
  2
7
 62
     7
 70
0
  6
CONTINUOUS
  0
ENDTAB
  0
TABLE
  2
STYLE
 70
     1
  0
STYLE
 70
     0
  2
STANDARD
  3
TXT
 40
0.00
 41
1.00
 42
1.00
 50
0.00
 71
     0
  0
ENDTAB
  0
ENDSEC
  0
SECTION
  2
BLOCKS
  0
BLOCK
  8
0
  2
EPAD
 70
0
 10
0.0
 20
0.0
  0
POLYLINE
  8
0
 66
1
 70
1
 40
0.5
 41
0.5
  0
VERTEX
  8
0
 10
-0.25
 20
0.0
 42
1.0
  0
VERTEX
  8
0
 10
0.25
 20
0.0
 42
1.0
  0
SEQEND
  8
0
  0
ENDBLK
  8
0
  0
BLOCK
  8
0
  2
RPAD
 70
0
 10
0.0
 20
0.0
  0
TRACE
  8
0
 10
-0.5
 20
-0.5
 11
-0.5
 21
0.5
 12
0.5
 22
-0.5
 13
0.5
 23
0.5
  0
ENDBLK
  8
0
  0
ENDSEC
0
SECTION
2
ENTITIES
0
POLYLINE
8
0
66
1
40
0.040000
41
0.040000
0
VERTEX
8
0
10
-0.230000
20
0.300000
0
VERTEX
8
0
10
-0.150000
20
0.380000
0
VERTEX
8
0
10
-0.100000
20
0.380000
0
VERTEX
8
0
10
-0.030000
20
0.450000
0
SEQEND
8
0
0
POLYLINE
8
0
66
1
40
0.040000
41
0.040000
0
VERTEX
8
0
10
0.420000
20
-0.300000
0
VERTEX
8
0
10
0.200000
20
-0.300000
0
VERTEX
8
0
10
0.150000
20
-0.250000
0
SEQEND
8
0
0
POLYLINE
8
0
66
1
40
0.040000
41
0.040000
0
VERTEX
8
0
10
0.420000
20
0.307000
0
VERTEX
8
0
10
0.277000
20
0.450000
0
VERTEX
8
0
10
0.270000
20
0.450000
0
SEQEND
8
0
0
POLYLINE
8
0
66
1
40
0.040000
41
0.040000
0
VERTEX
8
0
10
0.420000
20
0.228000
0
VERTEX
8
0
10
0.420000
20
0.150000
0
VERTEX
8
0
10
0.481000
20
0.150000
0
VERTEX
8
0
10
0.570000
20
0.061000
0
VERTEX
8
0
10
0.570000
20
-0.250000
0
VERTEX
8
0
10
0.567000
20
-0.250000
0
VERTEX
8
0
10
0.510000
20
-0.307000
0
VERTEX
8
0
10
0.427000
20
-0.307000
0
VERTEX
8
0
10
0.420000
20
-0.300000
0
SEQEND
8
0
0
POLYLINE
8
0
66
1
40
0.040000
41
0.040000
0
VERTEX
8
0
10
0.420000
20
-0.007000
0
VERTEX
8
0
10
0.420000
20
-0.200000
0
SEQEND
8
0
0
POLYLINE
8
0
66
1
40
0.040000
41
0.040000
0
VERTEX
8
0
10
0.420000
20
0.071000
0
VERTEX
8
0
10
0.276000
20
0.071000
0
VERTEX
8
0
10
0.258000
20
0.089000
0
VERTEX
8
0
10
0.270000
20
0.100000
0
VERTEX
8
0
10
0.270000
20
0.207000
0
SEQEND
8
0
0
POLYLINE
8
0
66
1
40
0.040000
41
0.040000
0
VERTEX
8
0
10
0.070000
20
-0.250000
0
VERTEX
8
0
10
0.070000
20
-0.340000
0
VERTEX
8
0
10
-0.180000
20
-0.340000
0
VERTEX
8
0
10
-0.230000
20
-0.290000
0
VERTEX
8
0
10
-0.230000
20
-0.100000
0
SEQEND
8
0
0
POLYLINE
8
0
66
1
40
0.040000
41
0.040000
0
VERTEX
8
0
10
-0.010000
20
-0.250000
0
VERTEX
8
0
10
-0.010000
20
-0.143000
0
VERTEX
8
0
10
-0.018000
20
-0.135000
0
SEQEND
8
0
0
POLYLINE
8
0
66
1
40
0.040000
41
0.040000
0
VERTEX
8
0
10
0.270000
20
-0.192000
0
VERTEX
8
0
10
0.212000
20
-0.135000
0
VERTEX
8
0
10
-0.018000
20
-0.135000
0
VERTEX
8
0
10
-0.079000
20
-0.073000
0
SEQEND
8
0
0
POLYLINE
8
0
66
1
40
0.040000
41
0.040000
0
VERTEX
8
0
10
0.420000
20
-0.007000
0
VERTEX
8
0
10
0.188000
20
-0.007000
0
VERTEX
8
0
10
0.120000
20
0.061000
0
VERTEX
8
0
10
0.120000
20
0.273000
0
VERTEX
8
0
10
0.170000
20
0.350000
0
VERTEX
8
0
10
0.170000
20
0.450000
0
SEQEND
8
0
0
INSERT
8
0
2
EPAD
10
-0.010000
20
-0.250000
41
0.060000
42
0.060000
0
CIRCLE
8
0
10
-0.010000
20
-0.250000
40
0.025000
0
INSERT
8
0
2
EPAD
10
0.070000
20
-0.250000
41
0.060000
42
0.060000
0
CIRCLE
8
0
10
0.070000
20
-0.250000
40
0.025000
0
INSERT
8
0
2
EPAD
10
0.150000
20
-0.250000
41
0.060000
42
0.060000
0
CIRCLE
8
0
10
0.150000
20
-0.250000
40
0.025000
0
INSERT
8
0
2
EPAD
10
-0.230000
20
0.300000
41
0.090000
42
0.090000
0
CIRCLE
8
0
10
-0.230000
20
0.300000
40
0.025000
0
INSERT
8
0
2
EPAD
10
-0.230000
20
-0.100000
41
0.090000
42
0.090000
0
CIRCLE
8
0
10
-0.230000
20
-0.100000
40
0.025000
0
INSERT
8
0
2
EPAD
10
0.120000
20
0.273000
41
0.090000
42
0.090000
0
CIRCLE
8
0
10
0.120000
20
0.273000
40
0.025000
0
INSERT
8
0
2
EPAD
10
-0.079000
20
-0.073000
41
0.090000
42
0.090000
0
CIRCLE
8
0
10
-0.079000
20
-0.073000
40
0.025000
0
INSERT
8
0
2
EPAD
10
0.270000
20
0.207000
41
0.090000
42
0.090000
0
CIRCLE
8
0
10
0.270000
20
0.207000
40
0.025000
0
INSERT
8
0
2
EPAD
10
0.270000
20
-0.192000
41
0.090000
42
0.090000
0
CIRCLE
8
0
10
0.270000
20
-0.192000
40
0.025000
0
INSERT
8
0
2
EPAD
10
0.270000
20
-0.450000
41
0.056000
42
0.056000
0
CIRCLE
8
0
10
0.270000
20
-0.450000
40
0.010000
0
INSERT
8
0
2
EPAD
10
0.270000
20
0.450000
41
0.056000
42
0.056000
0
CIRCLE
8
0
10
0.270000
20
0.450000
40
0.010000
0
INSERT
8
0
2
EPAD
10
-0.330000
20
-0.450000
41
0.056000
42
0.056000
0
CIRCLE
8
0
10
-0.330000
20
-0.450000
40
0.010000
0
INSERT
8
0
2
EPAD
10
-0.230000
20
-0.450000
41
0.056000
42
0.056000
0
CIRCLE
8
0
10
-0.230000
20
-0.450000
40
0.010000
0
INSERT
8
0
2
EPAD
10
-0.230000
20
0.450000
41
0.056000
42
0.056000
0
CIRCLE
8
0
10
-0.230000
20
0.450000
40
0.010000
0
INSERT
8
0
2
EPAD
10
-0.130000
20
0.450000
41
0.056000
42
0.056000
0
CIRCLE
8
0
10
-0.130000
20
0.450000
40
0.010000
0
INSERT
8
0
2
EPAD
10
-0.030000
20
0.450000
41
0.056000
42
0.056000
0
CIRCLE
8
0
10
-0.030000
20
0.450000
40
0.010000
0
INSERT
8
0
2
EPAD
10
0.070000
20
0.450000
41
0.056000
42
0.056000
0
CIRCLE
8
0
10
0.070000
20
0.450000
40
0.010000
0
INSERT
8
0
2
EPAD
10
-0.130000
20
-0.450000
41
0.056000
42
0.056000
0
CIRCLE
8
0
10
-0.130000
20
-0.450000
40
0.010000
0
INSERT
8
0
2
EPAD
10
-0.030000
20
-0.450000
41
0.056000
42
0.056000
0
CIRCLE
8
0
10
-0.030000
20
-0.450000
40
0.010000
0
INSERT
8
0
2
EPAD
10
0.070000
20
-0.450000
41
0.056000
42
0.056000
0
CIRCLE
8
0
10
0.070000
20
-0.450000
40
0.010000
0
INSERT
8
0
2
EPAD
10
0.170000
20
-0.450000
41
0.056000
42
0.056000
0
CIRCLE
8
0
10
0.170000
20
-0.450000
40
0.010000
0
INSERT
8
0
2
EPAD
10
0.170000
20
0.450000
41
0.056000
42
0.056000
0
CIRCLE
8
0
10
0.170000
20
0.450000
40
0.010000
0
INSERT
8
0
2
EPAD
10
-0.430000
20
-0.450000
41
0.056000
42
0.056000
0
CIRCLE
8
0
10
-0.430000
20
-0.450000
40
0.010000
0
INSERT
8
0
2
EPAD
10
-0.330000
20
0.450000
41
0.056000
42
0.056000
0
CIRCLE
8
0
10
-0.330000
20
0.450000
40
0.010000
0
INSERT
8
0
2
EPAD
10
-0.430000
20
0.450000
41
0.056000
42
0.056000
0
CIRCLE
8
0
10
-0.430000
20
0.450000
40
0.010000
0
INSERT
8
0
2
EPAD
10
0.420000
20
-0.300000
41
0.080000
42
0.080000
0
CIRCLE
8
0
10
0.420000
20
-0.300000
40
0.025000
0
INSERT
8
0
2
EPAD
10
0.420000
20
-0.200000
41
0.080000
42
0.080000
0
CIRCLE
8
0
10
0.420000
20
-0.200000
40
0.025000
0
INSERT
8
0
2
EPAD
10
0.420000
20
0.307000
41
0.055000
42
0.055000
0
INSERT
8
0
2
EPAD
10
0.420000
20
0.307000
41
0.055000
42
0.055000
0
INSERT
8
0
2
EPAD
10
0.420000
20
0.228000
41
0.055000
42
0.055000
0
INSERT
8
0
2
EPAD
10
0.420000
20
0.228000
41
0.055000
42
0.055000
0
INSERT
8
0
2
EPAD
10
0.420000
20
0.150000
41
0.055000
42
0.055000
0
INSERT
8
0
2
EPAD
10
0.420000
20
0.150000
41
0.055000
42
0.055000
0
INSERT
8
0
2
EPAD
10
0.420000
20
0.071000
41
0.055000
42
0.055000
0
INSERT
8
0
2
EPAD
10
0.420000
20
0.071000
41
0.055000
42
0.055000
0
INSERT
8
0
2
EPAD
10
0.420000
20
-0.007000
41
0.055000
42
0.055000
0
INSERT
8
0
2
EPAD
10
0.420000
20
-0.007000
41
0.055000
42
0.055000
0
POLYLINE
8
0
66
1
40
0.008000
41
0.008000
0
VERTEX
8
0
10
-0.030000
20
-0.315000
0
VERTEX
8
0
10
0.170000
20
-0.315000
0
SEQEND
8
0
0
POLYLINE
8
0
66
1
40
0.008000
41
0.008000
0
VERTEX
8
0
10
-0.060000
20
-0.250000
0
VERTEX
8
0
10
-0.058000
20
-0.265000
0
VERTEX
8
0
10
-0.052000
20
-0.281000
0
VERTEX
8
0
10
-0.043000
20
-0.297000
0
VERTEX
8
0
10
-0.030000
20
-0.315000
0
SEQEND
8
0
0
POLYLINE
8
0
66
1
40
0.008000
41
0.008000
0
VERTEX
8
0
10
-0.060000
20
-0.250000
0
VERTEX
8
0
10
-0.059000
20
-0.224000
0
VERTEX
8
0
10
-0.052000
20
-0.201000
0
VERTEX
8
0
10
-0.041000
20
-0.179000
0
VERTEX
8
0
10
-0.025000
20
-0.161000
0
VERTEX
8
0
10
-0.005000
20
-0.146000
0
VERTEX
8
0
10
0.017000
20
-0.135000
0
VERTEX
8
0
10
0.043000
20
-0.127000
0
VERTEX
8
0
10
0.070000
20
-0.125000
0
SEQEND
8
0
0
POLYLINE
8
0
66
1
40
0.008000
41
0.008000
0
VERTEX
8
0
10
0.200000
20
-0.250000
0
VERTEX
8
0
10
0.198000
20
-0.265000
0
VERTEX
8
0
10
0.192000
20
-0.281000
0
VERTEX
8
0
10
0.183000
20
-0.297000
0
VERTEX
8
0
10
0.170000
20
-0.315000
0
SEQEND
8
0
0
POLYLINE
8
0
66
1
40
0.008000
41
0.008000
0
VERTEX
8
0
10
0.200000
20
-0.250000
0
VERTEX
8
0
10
0.199000
20
-0.224000
0
VERTEX
8
0
10
0.192000
20
-0.201000
0
VERTEX
8
0
10
0.181000
20
-0.179000
0
VERTEX
8
0
10
0.165000
20
-0.161000
0
VERTEX
8
0
10
0.145000
20
-0.146000
0
VERTEX
8
0
10
0.123000
20
-0.135000
0
VERTEX
8
0
10
0.097000
20
-0.127000
0
VERTEX
8
0
10
0.070000
20
-0.125000
0
SEQEND
8
0
0
TEXT
8
12632256
10
-0.055000
20
-0.373000
40
0.048000
41
1.041667
1
BC327
0
POLYLINE
8
0
66
1
40
0.008000
41
0.008000
0
VERTEX
8
0
10
-0.230000
20
0.250000
0
VERTEX
8
0
10
-0.230000
20
0.200000
0
SEQEND
8
0
0
POLYLINE
8
0
66
1
40
0.008000
41
0.008000
0
VERTEX
8
0
10
-0.255000
20
0.000000
0
VERTEX
8
0
10
-0.205000
20
0.000000
0
VERTEX
8
0
10
-0.205000
20
0.200000
0
VERTEX
8
0
10
-0.255000
20
0.200000
0
VERTEX
8
0
10
-0.255000
20
0.000000
0
SEQEND
8
0
0
POLYLINE
8
0
66
1
40
0.008000
41
0.008000
0
VERTEX
8
0
10
-0.230000
20
0.000000
0
VERTEX
8
0
10
-0.230000
20
-0.050000
0
SEQEND
8
0
0
TEXT
8
12632256
10
-0.265000
20
0.025000
40
0.048000
41
1.041667
50
90.000000
1
240
0
POLYLINE
8
0
66
1
40
0.008000
41
0.008000
0
VERTEX
8
0
10
0.095000
20
0.229000
0
VERTEX
8
0
10
0.070000
20
0.186000
0
SEQEND
8
0
0
POLYLINE
8
0
66
1
40
0.008000
41
0.008000
0
VERTEX
8
0
10
0.048000
20
0.199000
0
VERTEX
8
0
10
-0.051000
20
0.025000
0
VERTEX
8
0
10
-0.008000
20
0.000000
0
VERTEX
8
0
10
0.091000
20
0.174000
0
VERTEX
8
0
10
0.048000
20
0.199000
0
SEQEND
8
0
0
POLYLINE
8
0
66
1
40
0.008000
41
0.008000
0
VERTEX
8
0
10
-0.030000
20
0.013000
0
VERTEX
8
0
10
-0.055000
20
-0.029000
0
SEQEND
8
0
0
TEXT
8
12632256
10
-0.047000
20
0.052000
40
0.048000
41
1.041667
50
60.000000
1
10k
0
POLYLINE
8
0
66
1
40
0.008000
41
0.008000
0
VERTEX
8
0
10
0.270000
20
0.157000
0
VERTEX
8
0
10
0.270000
20
0.107000
0
SEQEND
8
0
0
POLYLINE
8
0
66
1
40
0.008000
41
0.008000
0
VERTEX
8
0
10
0.245000
20
-0.092000
0
VERTEX
8
0
10
0.295000
20
-0.092000
0
VERTEX
8
0
10
0.295000
20
0.107000
0
VERTEX
8
0
10
0.245000
20
0.107000
0
VERTEX
8
0
10
0.245000
20
-0.092000
0
SEQEND
8
0
0
POLYLINE
8
0
66
1
40
0.008000
41
0.008000
0
VERTEX
8
0
10
0.270000
20
-0.092000
0
VERTEX
8
0
10
0.270000
20
-0.142000
0
SEQEND
8
0
0
TEXT
8
12632256
10
0.235000
20
-0.042000
40
0.048000
41
1.041667
50
90.000000
1
1k
0
POLYLINE
8
0
66
1
40
0.008000
41
0.008000
0
VERTEX
8
0
10
-0.580000
20
0.500000
0
VERTEX
8
0
10
-0.680000
20
0.400000
0
SEQEND
8
0
0
POLYLINE
8
0
66
1
40
0.008000
41
0.008000
0
VERTEX
8
0
10
-0.680000
20
-0.400000
0
VERTEX
8
0
10
-0.580000
20
-0.500000
0
SEQEND
8
0
0
POLYLINE
8
0
66
1
40
0.008000
41
0.008000
0
VERTEX
8
0
10
0.620000
20
-0.400000
0
VERTEX
8
0
10
0.420000
20
-0.400000
0
VERTEX
8
0
10
0.399000
20
-0.402000
0
VERTEX
8
0
10
0.380000
20
-0.408000
0
VERTEX
8
0
10
0.363000
20
-0.417000
0
VERTEX
8
0
10
0.349000
20
-0.429000
0
VERTEX
8
0
10
0.337000
20
-0.443000
0
VERTEX
8
0
10
0.328000
20
-0.460000
0
VERTEX
8
0
10
0.322000
20
-0.479000
0
VERTEX
8
0
10
0.320000
20
-0.500000
0
SEQEND
8
0
0
POLYLINE
8
0
66
1
40
0.008000
41
0.008000
0
VERTEX
8
0
10
0.620000
20
-0.400000
0
VERTEX
8
0
10
0.620000
20
0.500000
0
VERTEX
8
0
10
-0.580000
20
0.500000
0
SEQEND
8
0
0
POLYLINE
8
0
66
1
40
0.008000
41
0.008000
0
VERTEX
8
0
10
-0.680000
20
0.400000
0
VERTEX
8
0
10
-0.680000
20
-0.400000
0
SEQEND
8
0
0
POLYLINE
8
0
66
1
40
0.008000
41
0.008000
0
VERTEX
8
0
10
-0.580000
20
-0.500000
0
VERTEX
8
0
10
0.320000
20
-0.500000
0
SEQEND
8
0
0
TEXT
8
12632256
10
0.678000
20
-0.125000
40
0.048000
41
1.041667
50
90.000000
1
WEMOS
0
CIRCLE
8
12632256
10
0.420000
20
-0.250000
40
0.100000
0
POLYLINE
8
0
66
1
40
0.008000
41
0.008000
0
VERTEX
8
0
10
0.370000
20
-0.325000
0
VERTEX
8
0
10
0.370000
20
-0.275000
0
SEQEND
8
0
0
POLYLINE
8
0
66
1
40
0.008000
41
0.008000
0
VERTEX
8
0
10
0.345000
20
-0.300000
0
VERTEX
8
0
10
0.395000
20
-0.300000
0
SEQEND
8
0
0
TEXT
8
12632256
10
0.678000
20
-0.275000
40
0.048000
41
1.041667
50
90.000000
1
1uF
0
CIRCLE
8
12632256
10
0.495000
20
0.307000
40
0.015000
0
POLYLINE
8
0
66
1
40
0.006000
41
0.006000
0
VERTEX
8
0
10
0.467000
20
-0.034000
0
VERTEX
8
0
10
0.467000
20
0.334000
0
VERTEX
8
0
10
0.449000
20
0.334000
0
SEQEND
8
0
0
POLYLINE
8
0
66
1
40
0.006000
41
0.006000
0
VERTEX
8
0
10
0.373000
20
0.334000
0
VERTEX
8
0
10
0.373000
20
-0.034000
0
VERTEX
8
0
10
0.390000
20
-0.034000
0
SEQEND
8
0
0
POLYLINE
8
0
66
1
40
0.006000
41
0.006000
0
VERTEX
8
0
10
0.449000
20
-0.034000
0
VERTEX
8
0
10
0.467000
20
-0.034000
0
SEQEND
8
0
0
POLYLINE
8
0
66
1
40
0.006000
41
0.006000
0
VERTEX
8
0
10
0.390000
20
0.334000
0
VERTEX
8
0
10
0.373000
20
0.334000
0
SEQEND
8
0
0
TEXT
8
12632256
10
0.574000
20
0.000000
40
0.048000
41
1.041667
50
90.000000
1
WS2812
0
POLYLINE
8
0
66
1
40
0.008000
41
0.008000
0
VERTEX
8
0
10
0.320000
20
-0.500000
0
VERTEX
8
0
10
0.322000
20
-0.479000
0
VERTEX
8
0
10
0.328000
20
-0.460000
0
VERTEX
8
0
10
0.337000
20
-0.443000
0
VERTEX
8
0
10
0.349000
20
-0.429000
0
VERTEX
8
0
10
0.363000
20
-0.417000
0
VERTEX
8
0
10
0.380000
20
-0.408000
0
VERTEX
8
0
10
0.399000
20
-0.402000
0
VERTEX
8
0
10
0.420000
20
-0.400000
0
VERTEX
8
0
10
0.620000
20
-0.400000
0
VERTEX
8
0
10
0.620000
20
0.500000
0
VERTEX
8
0
10
-0.580000
20
0.500000
0
VERTEX
8
0
10
-0.680000
20
0.400000
0
VERTEX
8
0
10
-0.680000
20
-0.400000
0
VERTEX
8
0
10
-0.580000
20
-0.500000
0
VERTEX
8
0
10
0.320000
20
-0.500000
0
SEQEND
8
0
0
ENDSEC
0
EOF

